<svg width="132" height="41" viewBox="0 0 132 41" fill="none" xmlns="http://www.w3.org/2000/svg">
<path d="M8.55497 39.9289L0.454974 39.9336L0.432312 0.433594L9.48231 0.428402C11.349 0.427331 12.8657 0.526462 14.0325 0.725792C15.2326 0.891768 16.1661 1.2579 16.8331 1.82419C17.5001 2.39047 17.9506 3.20687 18.1845 4.27341C18.4518 5.30659 18.5859 6.70654 18.5869 8.47318L18.5893 12.5732C18.5899 13.6065 18.4737 14.4566 18.2407 15.1234C18.0078 15.7902 17.7081 16.3237 17.3417 16.7239C17.0085 17.1241 16.6421 17.4243 16.2422 17.6245C15.8423 17.7914 15.4757 17.9083 15.1424 17.9752L15.1425 18.1752C15.6426 18.3082 16.0927 18.508 16.4928 18.7744C16.9263 19.0075 17.2932 19.3739 17.5935 19.8738C17.8938 20.3736 18.1275 21.0401 18.2946 21.8733C18.4951 22.6732 18.5957 23.7065 18.5964 24.9732L18.605 39.9232L10.455 39.9278L10.4449 22.4279C10.4447 21.9945 10.3945 21.7112 10.2944 21.5779C10.1943 21.4114 9.92766 21.3282 9.4943 21.3284L8.5443 21.3289L8.55497 39.9289ZM8.54066 14.9789L9.49066 14.9784C9.92401 14.9782 10.1906 14.9114 10.2905 14.7779C10.3904 14.6112 10.4403 14.3112 10.44 13.8779L10.4369 8.47786C10.4367 8.0445 10.3865 7.76124 10.2864 7.62794C10.1863 7.46136 9.91965 7.37815 9.4863 7.3784L8.5363 7.37895L8.54066 14.9789ZM37.579 34.0623C37.5798 35.4623 37.4637 36.579 37.2309 37.4125C37.0314 38.246 36.6318 38.8962 36.032 39.3632C35.4656 39.7969 34.6657 40.0806 33.6325 40.2146C32.6326 40.3485 31.3159 40.4159 29.6826 40.4168C28.0826 40.4177 26.7659 40.3518 25.7325 40.2191C24.6991 40.0863 23.8989 39.8035 23.332 39.3705C22.765 38.9041 22.3647 38.2544 22.1309 37.4212C21.9304 36.5879 21.8298 35.4713 21.829 34.0713L21.8185 15.8213C21.8177 14.4213 21.9171 13.3046 22.1166 12.4712C22.3494 11.6377 22.749 11.0041 23.3155 10.5705C23.8819 10.1035 24.6817 9.80304 25.715 9.66909C26.7482 9.53514 28.0649 9.46774 29.6649 9.46682C31.2982 9.46589 32.6149 9.53178 33.615 9.66456C34.6483 9.79732 35.4485 10.0969 36.0155 10.5632C36.6157 10.9962 37.0161 11.6293 37.2166 12.4625C37.4504 13.2957 37.5677 14.4123 37.5685 15.8123L37.579 34.0623ZM28.7782 32.6673C28.7784 33.1007 28.8286 33.4007 28.9287 33.5672C29.0288 33.7005 29.2788 33.767 29.6788 33.7668C30.1121 33.7666 30.3788 33.6998 30.4787 33.5664C30.5786 33.3997 30.6284 33.0996 30.6282 32.6663L30.6193 17.2163C30.6191 16.7829 30.5689 16.4997 30.4688 16.3664C30.3687 16.1998 30.102 16.1166 29.6687 16.1168C29.2687 16.1171 29.0187 16.2006 28.9188 16.3673C28.8189 16.5007 28.7691 16.784 28.7693 17.2173L28.7782 32.6673ZM48.3049 0.406128L48.3112 11.3061C48.7442 10.7059 49.2773 10.2889 49.9105 10.0552C50.5771 9.82147 51.3936 9.70436 52.3603 9.7038C53.327 9.70325 54.1103 9.81944 54.7105 10.0525C55.3106 10.2521 55.7608 10.5852 56.061 11.0517C56.3947 11.5181 56.6117 12.1514 56.7121 12.9513C56.8459 13.7179 56.9131 14.6678 56.9138 15.8012L56.9242 34.0512C56.9249 35.2178 56.8588 36.2012 56.7259 37.0013C56.6264 37.768 56.4101 38.3848 56.077 38.8517C55.744 39.3185 55.2608 39.6521 54.6276 39.8525C53.9944 40.0529 53.1777 40.1533 52.1777 40.1539C51.0445 40.1546 50.1277 40.0384 49.4275 39.8055C48.7274 39.5392 48.1939 39.1228 47.8268 38.5564L47.8276 39.9064L41.1776 39.9102L41.1549 0.41023L48.3049 0.406128ZM49.9646 17.2052C49.9643 16.8052 49.9142 16.5219 49.8141 16.3553C49.7474 16.1887 49.5307 16.1054 49.1639 16.1056C48.8307 16.1058 48.5807 16.1726 48.4141 16.3061C48.2808 16.4061 48.1809 16.5728 48.1143 16.8062L48.1237 33.0562C48.1905 33.2896 48.2906 33.4728 48.424 33.6061C48.5908 33.706 48.8408 33.7558 49.1741 33.7556C49.5408 33.7554 49.7574 33.6719 49.8239 33.5053C49.9238 33.3386 49.9737 33.0552 49.9734 32.6552L49.9646 17.2052ZM67.6938 5.59501L60.5939 5.59908L60.5909 0.399079L67.6909 0.395006L67.6938 5.59501ZM67.7135 39.895L60.6136 39.8991L60.5964 9.94908L67.6963 9.94501L67.7135 39.895ZM88.0431 39.8833L80.8431 39.8875L80.8301 17.1875C80.8299 16.7875 80.7797 16.5041 80.6796 16.3376C80.6124 16.171 80.3959 16.0877 80.0295 16.0879C79.6959 16.0881 79.446 16.1549 79.2796 16.2884C79.1461 16.3884 79.0297 16.5551 78.9299 16.7886L78.9431 39.8886L71.7931 39.8927L71.7759 9.94266L78.4259 9.93885L78.4267 11.2888C78.7928 10.722 79.3262 10.3217 80.026 10.0879C80.7259 9.82089 81.6422 9.687 82.7758 9.68635C83.7758 9.68578 84.6088 9.7853 85.276 9.98492C85.9761 10.1845 86.5263 10.5176 86.9265 10.984C87.3268 11.4504 87.6101 12.0836 87.7776 12.8835C87.9445 13.65 88.0286 14.6167 88.0293 15.7833L88.0431 39.8833ZM99.1115 39.877L91.8615 39.8811L91.8575 32.8311L99.1075 32.827L99.1115 39.877ZM131.148 0.358599L127.071 39.8609L116.871 39.8668L115.504 11.2176L115.304 11.2177L113.671 39.8686L103.321 39.8746L100.248 0.376327L108.398 0.371651L109.264 28.0712L109.464 28.071L110.648 0.37036L120.648 0.364623L121.514 28.0641L121.714 28.064L122.948 0.363303L131.148 0.358599Z" fill="white"/>
</svg>
